<svg xmlns="http://www.w3.org/2000/svg" width="359" height="240" viewBox="0 0 359 240" fill="none"><path d="M158.689 239.327C157.054 239.327 155.685 238.91 154.614 238.08C154.388 237.909 120.947 204.641 119.596 203.245C118.691 202.442 118.074 201.41 117.759 200.176C117.489 199.113 117.43 197.929 117.579 196.654C117.705 195.555 117.98 194.366 118.394 193.119L118.583 192.554C114.616 195.277 110.122 197.359 105.471 198.606L70.1115 207.728L57.7336 195.039L50.1826 200.468L15.0525 165.463L2.79168 145.861L20.1811 132.939L15.1426 128.511L25.1656 99.164C22.608 96.62 3.89484 77.9197 3.33651 77.1345C0.346716 72.8991 -0.144078 67.071 1.9947 61.1486L11.6305 34.4171C15.782 23.6581 27.8582 13.4241 39.1329 11.1089L86.4248 1.35048L121.658 36.4585L118.448 45.2165H129.655L142.785 9.22904L171.584 0.767212L178.595 8.47079L204.792 0.771699L220.366 16.5198L231.344 8.57399L258.41 35.7362L268.131 9.22904L296.908 0.771699L332.164 35.9067L325.108 55.2756C326.819 56.9715 355.155 85.2688 355.708 86.063C358.694 90.3343 359.144 96.1983 356.938 102.148L337.842 154.588H325.446C328.319 157.473 335.951 165.19 336.324 165.907C337.437 168.061 337.509 170.713 336.518 173.189L333.461 180.812C331.795 184.967 327.296 188.098 323.001 188.098H320.056L315.202 200.212H314.473L316.517 203.658L304.936 211.909L295.156 202.016L293.95 205.623L293.652 206.548L302.356 214.623L294.112 239.278L267.514 239.287L266.956 238.551C266.789 238.623 266.623 238.681 266.465 238.739C265.416 239.103 264.317 239.287 263.196 239.287H253.169C252.002 239.287 250.89 238.95 249.859 238.282C249.368 237.968 248.914 237.573 248.504 237.115C248.333 236.954 247.693 236.321 247.216 235.845C246.797 236.321 246.356 236.747 245.906 237.115C244.992 237.855 244.042 238.389 243.002 238.748C241.952 239.112 240.854 239.296 239.737 239.296H229.705C228.539 239.296 227.427 238.959 226.396 238.291C225.905 237.977 225.45 237.586 225.04 237.129C224.959 237.052 224.788 236.882 224.594 236.693L223.721 239.3L196.885 239.309L196.327 238.573C196.16 238.645 195.998 238.703 195.836 238.762C194.787 239.125 193.688 239.309 192.567 239.314H182.296C181.103 239.314 179.982 238.964 178.969 238.268C178.545 237.977 176.825 236.267 176.555 235.984C176.524 235.958 176.492 235.926 176.461 235.899C176.29 236.097 176.127 236.276 175.965 236.442C175.204 237.218 174.403 237.851 173.516 238.38C172.458 239.004 171.328 239.322 170.161 239.322H158.693H158.689V239.327Z" fill="#005994"></path><path d="M171.368 1.52995L178.379 9.23353L204.589 1.52995L220.285 17.4037L231.268 9.45786L258.621 36.9072L258.72 36.8354L268.644 9.7809L296.71 1.53444L331.38 36.0817L324.325 55.4461C324.397 55.5178 324.469 55.5941 324.541 55.6659C324.694 55.8095 354.619 85.6906 355.15 86.4443C358.009 90.5317 358.428 96.1714 356.303 101.91L337.365 153.91H323.82C323.82 153.91 323.856 153.951 323.879 153.973C324.037 154.117 335.334 165.472 335.721 166.213C336.743 168.191 336.802 170.641 335.888 172.934L332.835 180.556C331.268 184.469 327.04 187.421 323.001 187.421H319.601L314.747 199.535H313.293L315.626 203.465L305.017 211.025L294.868 200.755L293.017 206.292H293.031L292.882 206.74L301.586 214.816L293.634 238.6L267.861 238.609L267.177 237.712C266.875 237.86 266.569 237.99 266.253 238.098C265.281 238.434 264.25 238.609 263.205 238.609H253.173C252.142 238.609 251.151 238.313 250.233 237.716C249.778 237.425 249.364 237.066 248.995 236.649C248.837 236.505 247.333 235.015 247.194 234.854C247.189 234.849 247.185 234.845 247.18 234.84C246.658 235.513 246.09 236.101 245.487 236.59C244.636 237.281 243.753 237.779 242.79 238.107C241.813 238.443 240.786 238.618 239.742 238.618H229.71C229.71 238.618 229.71 238.618 229.705 238.618C228.678 238.618 227.688 238.318 226.769 237.721C226.315 237.429 225.9 237.07 225.531 236.653C225.373 236.509 224.41 235.549 224.306 235.437L223.244 238.623L197.232 238.632L196.547 237.734C196.246 237.882 195.944 238.012 195.624 238.12C194.647 238.461 193.62 238.632 192.576 238.632H182.305C181.252 238.632 180.261 238.322 179.36 237.707C179 237.461 177.177 235.652 177.033 235.495C176.875 235.356 176.726 235.204 176.582 235.047C176.528 234.997 176.474 234.948 176.42 234.899C176.123 235.271 175.817 235.63 175.488 235.967C174.768 236.702 174.011 237.299 173.174 237.793C172.219 238.353 171.211 238.641 170.166 238.641H158.698C158.698 238.641 158.698 238.641 158.693 238.641C157.212 238.641 155.982 238.268 155.032 237.537C154.758 237.33 120.208 202.904 120.069 202.747C119.263 202.038 118.7 201.114 118.421 199.997C118.173 199.019 118.115 197.915 118.259 196.722C118.376 195.672 118.642 194.519 119.047 193.316L119.902 190.759C115.688 193.985 110.685 196.497 105.305 197.942L70.3321 206.965L57.8191 194.142L50.2591 199.575L15.5883 165.028L3.69671 146.018L20.9105 133.227H20.8835L21.0366 132.778L15.9305 128.291L25.9445 98.9711C25.9445 98.9711 25.922 98.9487 25.913 98.9397C25.7599 98.7961 4.41263 77.471 3.89482 76.7352C1.03111 72.6793 0.576337 67.0755 2.63407 61.364L12.2698 34.6325C16.3403 24.0799 28.2004 14.0298 39.2725 11.755L86.2041 2.08181L120.875 36.629L117.48 45.8895H130.128L143.303 9.77642L171.368 1.52546M125.733 185.254H126.112C126.066 185.205 126.017 185.164 125.976 185.115C125.954 185.092 125.931 185.07 125.909 185.048C125.85 185.115 125.792 185.187 125.733 185.254ZM171.8 0L170.985 0.237793L142.92 8.48875L142.267 8.68167L142.033 9.31878L129.182 44.5435H119.412L122.145 37.0912L122.442 36.2836L121.834 35.6779L87.1587 1.13064L86.6454 0.619158L85.934 0.767218L38.9888 10.4494C27.516 12.8094 15.2191 23.2229 11.0001 34.1614V34.1748L10.9911 34.1883L1.3508 60.9198C-0.860023 67.053 -0.342213 73.1055 2.77816 77.5204C3.34099 78.3145 20.906 95.8753 24.3821 99.3435L14.6383 127.87L14.3501 128.718L15.0255 129.31L19.1004 132.89L2.87722 144.946L1.88212 145.686L2.53951 146.736L14.4311 165.746L14.5122 165.876L14.6202 165.984L49.291 200.531L50.106 201.343L51.0381 200.675L57.6525 195.923L69.3505 207.912L69.8999 208.472L70.6608 208.275L105.633 199.252C109.758 198.144 113.756 196.399 117.381 194.137C117.156 194.985 116.994 195.798 116.908 196.574C116.75 197.924 116.813 199.189 117.106 200.334C117.448 201.693 118.133 202.837 119.137 203.73C121.046 205.682 153.983 238.439 154.213 238.614C155.393 239.524 156.901 239.991 158.689 239.991H170.166C171.454 239.987 172.696 239.637 173.863 238.95C174.804 238.389 175.65 237.721 176.452 236.904C176.465 236.891 176.479 236.877 176.492 236.864C177.123 237.492 178.217 238.555 178.59 238.816C179.721 239.592 180.968 239.982 182.301 239.982H192.571C193.765 239.978 194.94 239.78 196.061 239.39C196.074 239.39 196.083 239.381 196.097 239.376L196.146 239.444L196.552 239.978H197.223L223.235 239.969H224.207L224.513 239.049L224.883 237.941C225.238 238.286 225.621 238.596 226.026 238.856C227.161 239.592 228.399 239.969 229.692 239.969H239.728C240.926 239.964 242.096 239.767 243.218 239.376C244.33 238.995 245.347 238.425 246.325 237.631C246.631 237.38 246.932 237.106 247.225 236.81C247.558 237.138 247.869 237.447 248.004 237.577C248.45 238.071 248.945 238.497 249.485 238.847C250.62 239.583 251.858 239.96 253.16 239.96H263.192C264.385 239.96 265.56 239.758 266.686 239.367C266.699 239.367 266.708 239.358 266.722 239.354L266.771 239.421L267.177 239.955H267.847L293.621 239.946H294.593L294.9 239.026L302.851 215.243L303.126 214.422L302.491 213.834L294.422 206.346L294.891 204.946H294.877L295.44 203.263L304.045 211.967L304.855 212.788L305.792 212.12L316.4 204.56L317.409 203.842L316.778 202.779L315.653 200.881L315.99 200.033L320.502 188.767H322.987C327.544 188.767 332.313 185.451 334.073 181.054L337.126 173.432C338.189 170.775 338.107 167.917 336.91 165.593C336.514 164.826 330.462 158.679 327.058 155.256H338.301L338.625 154.368L357.564 102.367C359.842 96.2163 359.365 90.1279 356.249 85.6726C355.636 84.7977 329.525 58.7303 325.878 55.1006L332.641 36.5393L332.934 35.7362L332.326 35.1305L297.669 0.578778L297.101 0.01346L296.331 0.237793L268.266 8.48426L267.613 8.67719L267.379 9.31429L258.135 34.5069L232.227 8.50669L231.412 7.69012L230.475 8.36761L220.434 15.636L205.553 0.587752L204.985 0.01346L204.211 0.242279L178.811 7.70807L172.368 0.628131L171.8 0Z" fill="#FECF0A"></path><path d="M136.531 128.65L127.71 157.001C127.179 159.698 128.687 161.847 131.141 161.847H148.603C151.056 161.847 154.285 159.698 155.915 157.001L169.806 128.65H159.278L148.071 156.625H146.338L157.545 128.65H148.792L143.19 142.635L141.097 147.858L137.584 156.62H135.851L147.058 128.646H136.531V128.65Z" fill="#FECF0A"></path><path d="M179.342 161.847L187.663 133.577C188.447 130.88 187.146 128.65 184.732 128.65H182.112L180.004 133.918L179.874 134.236L176.861 141.751H175.087L178.1 134.236H178.095L180.333 128.65H171.584L160.377 156.625L158.283 161.851H162.682C165.091 161.851 167.811 159.913 168.793 157.468L174.38 143.524H176.154L168.811 161.851H179.338L179.342 161.847Z" fill="#FECF0A"></path><path d="M152.182 85.7175L140.939 116.222H159.278L170.517 85.7175L179.392 61.2563L192.846 24.5689L199.501 6.30374L178.946 12.3428L163.268 55.0737L152.182 85.7175Z" fill="#FECF0A"></path><path d="M239.129 27.6647L230.407 13.9625L211.478 27.6647L220.502 41.3714L239.129 27.6647Z" fill="#FECF0A"></path><path d="M275.061 139.077L279.244 128.628L267.375 131.028C264.434 131.62 261.197 134.317 260.116 137.009L257.433 143.703L255.087 149.563L250.075 162.076H255.361L260.373 149.563H272.634L276.128 140.841H263.867L264.574 139.073H275.061V139.077Z" fill="#FECF0A"></path><path d="M241.299 162.076H246.586L259.175 130.651L253.2 132.379L241.299 162.076Z" fill="#FECF0A"></path><path d="M201.541 161.847L210.366 133.496C210.897 130.799 209.389 128.65 206.935 128.65H198.182C195.773 128.65 193.053 130.588 192.072 133.034L188.222 142.64L186.128 147.867L180.527 161.851H189.28L196.624 143.524H198.357L191.013 161.851H201.541V161.847ZM197.326 141.751L200.483 133.873H202.216L199.06 141.751H197.326Z" fill="#FECF0A"></path><path d="M7.89771 146.821L16.4753 160.528L35.5488 146.821L26.5299 132.975L7.89771 146.821Z" fill="#FECF0A"></path><path d="M218.736 128.65C216.328 128.65 213.563 130.588 212.599 132.989L212.244 133.873L206.642 147.858L212.635 146.09L216.129 137.368H220.677L210.776 162.076H216.062L225.963 137.368H243.979L243.965 128.646H218.741L218.736 128.65Z" fill="#FECF0A"></path><path d="M198.47 42.9911L185.016 79.5349H221.686L219.47 85.7175H183.597L172.507 116.222H226.864L242.835 72.3158C246.234 62.8849 242.245 53.454 233.519 51.3856L198.474 42.9911H198.47Z" fill="#FECF0A"></path><path d="M307.741 49.0301H282.157L268.698 85.7175H262.642L271.517 61.2563L284.971 24.5689L291.626 6.29926L271.067 12.3428L255.393 55.0737L244.307 85.7175L233.064 116.222H300.492L318.683 66.2723C322.231 56.6889 317.355 49.0301 307.741 49.0301ZM293.247 85.7175H287.033L289.402 79.5349H295.616L293.247 85.7175Z" fill="#FECF0A"></path><path d="M295.868 131.239L285.894 128.798L281.693 139.288H292.22L291.527 141.015H285.948C283.242 141.015 280.104 143.25 279.023 145.946L272.652 161.851H277.938L282.792 149.738H288.33C291.081 149.738 294.157 147.544 295.237 144.847L298.29 137.224C299.389 134.483 298.29 131.831 295.868 131.239Z" fill="#FECF0A"></path><path d="M48.3229 49.0301H28.8037L31.0236 42.9866H67.8466L81.3007 6.29926L39.8939 14.8418C29.8394 16.9102 18.8933 26.1886 15.1966 35.7676L5.58783 62.4318C2.18829 71.8627 6.91613 79.5304 16.5249 79.5304H35.9L20.3162 125.16H38.7997L59.4131 66.2723C62.664 56.8414 57.7831 49.0301 48.3184 49.0301H48.3229Z" fill="#FECF0A"></path><path d="M268.865 168.039L271.269 171.96L276.772 168.039L274.421 164.081L268.865 168.039Z" fill="#FECF0A"></path><path d="M137.292 85.7175L166.276 6.30374L145.721 12.3473L118.952 85.722H112.599L126.057 49.0346H100.473C90.8599 49.0346 80.3596 56.6933 76.807 66.2768L58.6161 116.227H83.1648L78.6711 131.208H54.1269L40.6683 167.895L69.8008 160.38C80.7423 157.441 90.207 149.773 93.6065 140.342L101.504 116.227H126.048L137.287 85.722L137.292 85.7175ZM94.2639 85.7175H88.0547L90.2746 79.5349H96.4838L94.2684 85.7175H94.2639Z" fill="#FECF0A"></path><path d="M142.384 184.621C141.731 184.249 140.988 183.939 140.178 183.706C140.178 183.706 138.156 183.132 137.661 182.993C136.859 182.768 136.175 182.535 135.626 182.306C134.311 181.754 134.405 180.817 134.572 180.305L136.702 173.93H140.318L138.638 178.955H146.491L147.882 174.791C148.566 172.745 148.967 171.085 149.071 169.856C149.17 168.694 149.102 167.801 148.873 167.204C148.675 166.684 148.395 166.356 148.031 166.195C147.576 165.997 147.108 165.898 146.644 165.898H134.887C134.347 165.903 133.482 166.051 132.199 167.303C131.082 168.393 130.083 170.255 129.218 172.835L126.737 180.251C126.571 180.754 126.584 181.126 126.787 181.427C127.075 181.857 127.525 182.23 128.133 182.526C128.804 182.862 129.547 183.136 130.394 183.365C131.24 183.589 132.073 183.827 132.956 184.092C133.834 184.361 134.518 184.653 135.049 184.98C136.18 185.685 136.026 186.752 135.833 187.327L133.96 192.931H130.344L131.866 188.386H124.013L122.032 194.317C121.699 195.313 121.483 196.246 121.384 197.094C121.289 197.906 121.316 198.624 121.474 199.234C121.613 199.782 121.879 200.199 122.293 200.513C122.676 200.809 123.257 200.957 124.022 200.957H135.491C135.977 200.953 136.418 200.823 136.886 200.549C137.485 200.194 138.03 199.759 138.552 199.23C139.097 198.669 139.597 198.036 140.029 197.35C140.462 196.663 140.781 196.008 140.984 195.412L143.785 187.035C143.956 186.528 143.938 186.142 143.735 185.819C143.442 185.366 142.988 184.958 142.389 184.612L142.384 184.621Z" fill="#FECF0A"></path><path d="M160.048 185.366L157.522 192.926H153.862L160.201 173.965H163.862L161.48 181.09H169.238L172.516 171.287C172.854 170.282 172.998 169.429 172.958 168.747C172.917 168.088 172.746 167.536 172.453 167.114C172.156 166.688 171.778 166.388 171.305 166.199C170.801 165.997 170.233 165.894 169.626 165.894H159.355C158.896 165.894 158.409 166.015 157.86 166.253C157.266 166.513 156.694 166.868 156.118 167.334C155.546 167.801 155.01 168.38 154.524 169.053C154.042 169.726 153.659 170.479 153.384 171.296L145.415 195.129C145.131 195.977 145.005 196.762 145.045 197.462C145.086 198.189 145.234 198.835 145.496 199.378C145.743 199.898 146.072 200.302 146.473 200.58C146.842 200.836 147.22 200.957 147.63 200.957H157.901C158.589 200.953 159.269 200.841 159.922 200.612C160.53 200.405 161.097 200.082 161.656 199.629C162.223 199.167 162.759 198.57 163.25 197.848C163.754 197.099 164.195 196.17 164.56 195.075L167.807 185.366H160.048Z" fill="#FECF0A"></path><path d="M190.167 165.885L184.489 182.867L180.779 182.871L186.457 165.885L178.653 165.889L166.928 200.948L174.732 200.944L180.383 184.051H184.093L178.442 200.944L186.295 200.939L198.02 165.88L190.167 165.885Z" fill="#FECF0A"></path><path d="M220.119 168.729C220.078 168.07 219.907 167.518 219.614 167.096C219.317 166.67 218.939 166.37 218.466 166.181C217.962 165.979 217.395 165.876 216.787 165.876H206.755C206.287 165.876 205.773 166.002 205.188 166.244C204.566 166.504 203.959 166.872 203.382 167.33C202.783 167.81 202.216 168.397 201.703 169.075C201.203 169.734 200.816 170.475 200.546 171.278L192.576 195.111C192.292 195.954 192.18 196.731 192.229 197.426C192.283 198.153 192.454 198.79 192.733 199.328C193.017 199.867 193.368 200.266 193.81 200.549C194.215 200.814 194.616 200.939 195.03 200.939H205.062C205.751 200.939 206.431 200.823 207.083 200.594C207.691 200.387 208.254 200.064 208.817 199.611C209.384 199.149 209.92 198.552 210.406 197.83C210.911 197.081 211.352 196.147 211.717 195.057L219.673 171.273C220.011 170.268 220.155 169.416 220.114 168.734L220.119 168.729ZM204.684 192.908H201.023L207.381 173.898H211.041L204.684 192.908Z" fill="#FECF0A"></path><path d="M243.582 168.716C243.542 168.057 243.371 167.505 243.078 167.083C242.781 166.657 242.403 166.356 241.93 166.168C241.426 165.966 240.858 165.863 240.25 165.863H230.218C229.75 165.863 229.237 165.988 228.651 166.23C228.03 166.491 227.422 166.859 226.846 167.316C226.247 167.796 225.68 168.384 225.166 169.062C224.667 169.721 224.279 170.461 224.009 171.264L216.039 195.098C215.76 195.937 215.643 196.717 215.693 197.413C215.747 198.14 215.918 198.777 216.197 199.315C216.481 199.853 216.832 200.253 217.273 200.535C217.678 200.8 218.079 200.926 218.493 200.926H228.525C229.214 200.926 229.894 200.809 230.547 200.58C231.155 200.374 231.718 200.051 232.281 199.598C232.848 199.136 233.384 198.539 233.87 197.816C234.374 197.067 234.816 196.138 235.18 195.044L243.137 171.26C243.474 170.255 243.623 169.403 243.578 168.721L243.582 168.716ZM228.147 192.899H224.486L230.844 173.889H234.505L228.147 192.899Z" fill="#FECF0A"></path><path d="M251.611 192.89H247.95L256.991 165.858H249.283L237.558 200.921L256.685 200.912L262.539 183.41L254.781 183.414L251.611 192.89Z" fill="#FECF0A"></path><path d="M136.531 128.65L127.71 157.001C127.179 159.698 128.687 161.847 131.141 161.847H148.603C151.056 161.847 154.285 159.698 155.915 157.001L169.806 128.65H159.278L148.071 156.625H146.338L157.545 128.65H148.792L143.19 142.635L141.097 147.858L137.584 156.62H135.851L147.058 128.646H136.531V128.65Z" fill="#005994"></path><path d="M179.342 161.847L187.663 133.577C188.447 130.88 187.146 128.65 184.732 128.65H182.112L180.004 133.918L179.874 134.236L176.861 141.751H175.087L178.1 134.236H178.095L180.333 128.65H171.584L160.377 156.625L158.283 161.851H162.682C165.091 161.851 167.811 159.913 168.793 157.468L174.38 143.524H176.154L168.811 161.851H179.338L179.342 161.847Z" fill="#005994"></path><path d="M152.182 85.7175L140.939 116.222H159.278L170.517 85.7175L179.392 61.2563L192.846 24.5689L199.501 6.30374L178.946 12.3428L163.268 55.0737L152.182 85.7175Z" fill="#005994"></path><path d="M239.129 27.6647L230.407 13.9625L211.478 27.6647L220.502 41.3714L239.129 27.6647Z" fill="#005994"></path><path d="M275.061 139.077L279.244 128.628L267.375 131.028C264.434 131.62 261.197 134.317 260.116 137.009L257.433 143.703L255.087 149.563L250.075 162.076H255.361L260.373 149.563H272.634L276.128 140.841H263.867L264.574 139.073H275.061V139.077Z" fill="#005994"></path><path d="M241.299 162.076H246.586L259.175 130.651L253.2 132.379L241.299 162.076Z" fill="#005994"></path><path d="M201.541 161.847L210.366 133.496C210.897 130.799 209.389 128.65 206.935 128.65H198.182C195.773 128.65 193.053 130.588 192.072 133.034L188.222 142.64L186.128 147.867L180.527 161.851H189.28L196.624 143.524H198.357L191.013 161.851H201.541V161.847ZM197.326 141.751L200.483 133.873H202.216L199.06 141.751H197.326Z" fill="#005994"></path><path d="M7.89771 146.821L16.4753 160.528L35.5488 146.821L26.5299 132.975L7.89771 146.821Z" fill="#005994"></path><path d="M218.736 128.65C216.328 128.65 213.563 130.588 212.599 132.989L212.244 133.873L206.642 147.858L212.635 146.09L216.129 137.368H220.677L210.776 162.076H216.062L225.963 137.368H243.979L243.965 128.646H218.741L218.736 128.65Z" fill="#005994"></path><path d="M198.47 42.9911L185.016 79.5349H221.686L219.47 85.7175H183.597L172.507 116.222H226.864L242.835 72.3158C246.234 62.8849 242.245 53.454 233.519 51.3856L198.474 42.9911H198.47Z" fill="#005994"></path><path d="M307.741 49.0301H282.157L268.698 85.7175H262.642L271.517 61.2563L284.971 24.5689L291.626 6.29926L271.067 12.3428L255.393 55.0737L244.307 85.7175L233.064 116.222H300.492L318.683 66.2723C322.231 56.6889 317.355 49.0301 307.741 49.0301ZM293.247 85.7175H287.033L289.402 79.5349H295.616L293.247 85.7175Z" fill="#005994"></path><path d="M295.868 131.239L285.894 128.798L281.693 139.288H292.22L291.527 141.015H285.948C283.242 141.015 280.104 143.25 279.023 145.946L272.652 161.851H277.938L282.792 149.738H288.33C291.081 149.738 294.157 147.544 295.237 144.847L298.29 137.224C299.389 134.483 298.29 131.831 295.868 131.239Z" fill="#005994"></path><path d="M48.3229 49.0301H28.8037L31.0236 42.9866H67.8466L81.3007 6.29926L39.8939 14.8418C29.8394 16.9102 18.8933 26.1886 15.1966 35.7676L5.58783 62.4318C2.18829 71.8627 6.91613 79.5304 16.5249 79.5304H35.9L20.3162 125.16H38.7997L59.4131 66.2723C62.664 56.8414 57.7831 49.0301 48.3184 49.0301H48.3229Z" fill="#005994"></path><path d="M268.865 168.039L271.269 171.96L276.772 168.039L274.421 164.081L268.865 168.039Z" fill="#005994"></path><path d="M137.292 85.7175L166.276 6.30374L145.721 12.3473L118.952 85.722H112.599L126.057 49.0346H100.473C90.8599 49.0346 80.3596 56.6933 76.807 66.2768L58.6161 116.227H83.1648L78.6711 131.208H54.1269L40.6683 167.895L69.8008 160.38C80.7423 157.441 90.207 149.773 93.6065 140.342L101.504 116.227H126.048L137.287 85.722L137.292 85.7175ZM94.2639 85.7175H88.0547L90.2746 79.5349H96.4838L94.2684 85.7175H94.2639Z" fill="#005994"></path><path d="M142.384 184.621C141.731 184.249 140.988 183.939 140.178 183.706C140.178 183.706 138.156 183.132 137.661 182.993C136.859 182.768 136.175 182.535 135.626 182.306C134.311 181.754 134.405 180.817 134.572 180.305L136.702 173.93H140.318L138.638 178.955H146.491L147.882 174.791C148.566 172.745 148.967 171.085 149.071 169.856C149.17 168.694 149.102 167.801 148.873 167.204C148.675 166.684 148.395 166.356 148.031 166.195C147.576 165.997 147.108 165.898 146.644 165.898H134.887C134.347 165.903 133.482 166.051 132.199 167.303C131.082 168.393 130.083 170.255 129.218 172.835L126.737 180.251C126.571 180.754 126.584 181.126 126.787 181.427C127.075 181.857 127.525 182.23 128.133 182.526C128.804 182.862 129.547 183.136 130.394 183.365C131.24 183.589 132.073 183.827 132.956 184.092C133.834 184.361 134.518 184.653 135.049 184.98C136.18 185.685 136.026 186.752 135.833 187.327L133.96 192.931H130.344L131.866 188.386H124.013L122.032 194.317C121.699 195.313 121.483 196.246 121.384 197.094C121.289 197.906 121.316 198.624 121.474 199.234C121.613 199.782 121.879 200.199 122.293 200.513C122.676 200.809 123.257 200.957 124.022 200.957H135.491C135.977 200.953 136.418 200.823 136.886 200.549C137.485 200.194 138.03 199.759 138.552 199.23C139.097 198.669 139.597 198.036 140.029 197.35C140.462 196.663 140.781 196.008 140.984 195.412L143.785 187.035C143.956 186.528 143.938 186.142 143.735 185.819C143.442 185.366 142.988 184.958 142.389 184.612L142.384 184.621Z" fill="#005994"></path><path d="M160.048 185.366L157.522 192.926H153.862L160.201 173.965H163.862L161.48 181.09H169.238L172.516 171.287C172.854 170.282 172.998 169.429 172.958 168.747C172.917 168.088 172.746 167.536 172.453 167.114C172.156 166.688 171.778 166.388 171.305 166.199C170.801 165.997 170.233 165.894 169.626 165.894H159.355C158.896 165.894 158.409 166.015 157.86 166.253C157.266 166.513 156.694 166.868 156.118 167.334C155.546 167.801 155.01 168.38 154.524 169.053C154.042 169.726 153.659 170.479 153.384 171.296L145.415 195.129C145.131 195.977 145.005 196.762 145.045 197.462C145.086 198.189 145.234 198.835 145.496 199.378C145.743 199.898 146.072 200.302 146.473 200.58C146.842 200.836 147.22 200.957 147.63 200.957H157.901C158.589 200.953 159.269 200.841 159.922 200.612C160.53 200.405 161.097 200.082 161.656 199.629C162.223 199.167 162.759 198.57 163.25 197.848C163.754 197.099 164.195 196.17 164.56 195.075L167.807 185.366H160.048Z" fill="#005994"></path><path d="M190.167 165.885L184.489 182.867L180.779 182.871L186.457 165.885L178.653 165.889L166.928 200.948L174.732 200.944L180.383 184.051H184.093L178.442 200.944L186.295 200.939L198.02 165.88L190.167 165.885Z" fill="#005994"></path><path d="M220.119 168.729C220.078 168.07 219.907 167.518 219.614 167.096C219.317 166.67 218.939 166.37 218.466 166.181C217.962 165.979 217.395 165.876 216.787 165.876H206.755C206.287 165.876 205.773 166.002 205.188 166.244C204.566 166.504 203.959 166.872 203.382 167.33C202.783 167.81 202.216 168.397 201.703 169.075C201.203 169.734 200.816 170.475 200.546 171.278L192.576 195.111C192.292 195.954 192.18 196.731 192.229 197.426C192.283 198.153 192.454 198.79 192.733 199.328C193.017 199.867 193.368 200.266 193.81 200.549C194.215 200.814 194.616 200.939 195.03 200.939H205.062C205.751 200.939 206.431 200.823 207.083 200.594C207.691 200.387 208.254 200.064 208.817 199.611C209.384 199.149 209.92 198.552 210.406 197.83C210.911 197.081 211.352 196.147 211.717 195.057L219.673 171.273C220.011 170.268 220.155 169.416 220.114 168.734L220.119 168.729ZM204.684 192.908H201.023L207.381 173.898H211.041L204.684 192.908Z" fill="#005994"></path><path d="M243.582 168.716C243.542 168.057 243.371 167.505 243.078 167.083C242.781 166.657 242.403 166.356 241.93 166.168C241.426 165.966 240.858 165.863 240.25 165.863H230.218C229.75 165.863 229.237 165.988 228.651 166.23C228.03 166.491 227.422 166.859 226.846 167.316C226.247 167.796 225.68 168.384 225.166 169.062C224.667 169.721 224.279 170.461 224.009 171.264L216.039 195.098C215.76 195.937 215.643 196.717 215.693 197.413C215.747 198.14 215.918 198.777 216.197 199.315C216.481 199.853 216.832 200.253 217.273 200.535C217.678 200.8 218.079 200.926 218.493 200.926H228.525C229.214 200.926 229.894 200.809 230.547 200.58C231.155 200.374 231.718 200.051 232.281 199.598C232.848 199.136 233.384 198.539 233.87 197.816C234.374 197.067 234.816 196.138 235.18 195.044L243.137 171.26C243.474 170.255 243.623 169.403 243.578 168.721L243.582 168.716ZM228.147 192.899H224.486L230.844 173.889H234.505L228.147 192.899Z" fill="#005994"></path><path d="M251.611 192.89H247.95L256.991 165.858H249.283L237.558 200.921L256.685 200.912L262.539 183.41L254.781 183.414L251.611 192.89Z" fill="#005994"></path><path d="M136.531 128.65L127.71 157.001C127.179 159.698 128.687 161.847 131.141 161.847H148.603C151.056 161.847 154.285 159.698 155.915 157.001L169.806 128.65H159.278L148.071 156.625H146.338L157.545 128.65H148.792L143.19 142.635L141.097 147.858L137.584 156.62H135.851L147.058 128.646H136.531V128.65Z" fill="#FDCF0D"></path><path d="M179.342 161.847L187.663 133.577C188.447 130.88 187.146 128.65 184.732 128.65H182.112L180.004 133.918L179.874 134.236L176.861 141.751H175.087L178.1 134.236H178.095L180.333 128.65H171.584L160.377 156.625L158.283 161.851H162.682C165.091 161.851 167.811 159.913 168.793 157.468L174.38 143.524H176.154L168.811 161.851H179.338L179.342 161.847Z" fill="#FDCF0D"></path><path d="M152.182 85.7175L140.939 116.222H159.278L170.517 85.7175L179.392 61.2563L192.846 24.5689L199.501 6.30374L178.946 12.3428L163.268 55.0737L152.182 85.7175Z" fill="#FDCF0D"></path><path d="M239.129 27.6647L230.407 13.9625L211.478 27.6647L220.502 41.3714L239.129 27.6647Z" fill="#FDCF0D"></path><path d="M275.061 139.077L279.244 128.628L267.375 131.028C264.434 131.62 261.197 134.317 260.116 137.009L257.433 143.703L255.087 149.563L250.075 162.076H255.361L260.373 149.563H272.634L276.128 140.841H263.867L264.574 139.073H275.061V139.077Z" fill="#FDCF0D"></path><path d="M241.299 162.076H246.586L259.175 130.651L253.2 132.379L241.299 162.076Z" fill="#FDCF0D"></path><path d="M201.541 161.847L210.366 133.496C210.897 130.799 209.389 128.65 206.935 128.65H198.182C195.773 128.65 193.053 130.588 192.072 133.034L188.222 142.64L186.128 147.867L180.527 161.851H189.28L196.624 143.524H198.357L191.013 161.851H201.541V161.847ZM197.326 141.751L200.483 133.873H202.216L199.06 141.751H197.326Z" fill="#FDCF0D"></path><path d="M7.89771 146.821L16.4753 160.528L35.5488 146.821L26.5299 132.975L7.89771 146.821Z" fill="#FDCF0D"></path><path d="M218.736 128.65C216.328 128.65 213.563 130.588 212.599 132.989L212.244 133.873L206.642 147.858L212.635 146.09L216.129 137.368H220.677L210.776 162.076H216.062L225.963 137.368H243.979L243.965 128.646H218.741L218.736 128.65Z" fill="#FDCF0D"></path><path d="M198.47 42.9911L185.016 79.5349H221.686L219.47 85.7175H183.597L172.507 116.222H226.864L242.835 72.3158C246.234 62.8849 242.245 53.454 233.519 51.3856L198.474 42.9911H198.47Z" fill="#FDCF0D"></path><path d="M307.741 49.0301H282.157L268.698 85.7175H262.642L271.517 61.2563L284.971 24.5689L291.626 6.29926L271.067 12.3428L255.393 55.0737L244.307 85.7175L233.064 116.222H300.492L318.683 66.2723C322.231 56.6889 317.355 49.0301 307.741 49.0301ZM293.247 85.7175H287.033L289.402 79.5349H295.616L293.247 85.7175Z" fill="#FDCF0D"></path><path d="M295.868 131.239L285.894 128.798L281.693 139.288H292.22L291.527 141.015H285.948C283.242 141.015 280.104 143.25 279.023 145.946L272.652 161.851H277.938L282.792 149.738H288.33C291.081 149.738 294.157 147.544 295.237 144.847L298.29 137.224C299.389 134.483 298.29 131.831 295.868 131.239Z" fill="#FDCF0D"></path><path d="M48.3229 49.0301H28.8037L31.0236 42.9866H67.8466L81.3007 6.29926L39.8939 14.8418C29.8394 16.9102 18.8933 26.1886 15.1966 35.7676L5.58783 62.4318C2.18829 71.8627 6.91613 79.5304 16.5249 79.5304H35.9L20.3162 125.16H38.7997L59.4131 66.2723C62.664 56.8414 57.7831 49.0301 48.3184 49.0301H48.3229Z" fill="#FDCF0D"></path><path d="M268.865 168.039L271.269 171.96L276.772 168.039L274.421 164.081L268.865 168.039Z" fill="#FDCF0D"></path><path d="M137.292 85.7175L166.276 6.30374L145.721 12.3473L118.952 85.722H112.599L126.057 49.0346H100.473C90.8599 49.0346 80.3596 56.6933 76.807 66.2768L58.6161 116.227H83.1648L78.6711 131.208H54.1269L40.6683 167.895L69.8008 160.38C80.7423 157.441 90.207 149.773 93.6065 140.342L101.504 116.227H126.048L137.287 85.722L137.292 85.7175ZM94.2639 85.7175H88.0547L90.2746 79.5349H96.4838L94.2684 85.7175H94.2639Z" fill="#FDCF0D"></path><path d="M142.384 184.621C141.731 184.249 140.988 183.939 140.178 183.706C140.178 183.706 138.156 183.132 137.661 182.993C136.859 182.768 136.175 182.535 135.626 182.306C134.311 181.754 134.405 180.817 134.572 180.305L136.702 173.93H140.318L138.638 178.955H146.491L147.882 174.791C148.566 172.745 148.967 171.085 149.071 169.856C149.17 168.694 149.102 167.801 148.873 167.204C148.675 166.684 148.395 166.356 148.031 166.195C147.576 165.997 147.108 165.898 146.644 165.898H134.887C134.347 165.903 133.482 166.051 132.199 167.303C131.082 168.393 130.083 170.255 129.218 172.835L126.737 180.251C126.571 180.754 126.584 181.126 126.787 181.427C127.075 181.857 127.525 182.23 128.133 182.526C128.804 182.862 129.547 183.136 130.394 183.365C131.24 183.589 132.073 183.827 132.956 184.092C133.834 184.361 134.518 184.653 135.049 184.98C136.18 185.685 136.026 186.752 135.833 187.327L133.96 192.931H130.344L131.866 188.386H124.013L122.032 194.317C121.699 195.313 121.483 196.246 121.384 197.094C121.289 197.906 121.316 198.624 121.474 199.234C121.613 199.782 121.879 200.199 122.293 200.513C122.676 200.809 123.257 200.957 124.022 200.957H135.491C135.977 200.953 136.418 200.823 136.886 200.549C137.485 200.194 138.03 199.759 138.552 199.23C139.097 198.669 139.597 198.036 140.029 197.35C140.462 196.663 140.781 196.008 140.984 195.412L143.785 187.035C143.956 186.528 143.938 186.142 143.735 185.819C143.442 185.366 142.988 184.958 142.389 184.612L142.384 184.621Z" fill="#FDCF0D"></path><path d="M160.048 185.366L157.522 192.926H153.862L160.201 173.965H163.862L161.48 181.09H169.238L172.516 171.287C172.854 170.282 172.998 169.429 172.958 168.747C172.917 168.088 172.746 167.536 172.453 167.114C172.156 166.688 171.778 166.388 171.305 166.199C170.801 165.997 170.233 165.894 169.626 165.894H159.355C158.896 165.894 158.409 166.015 157.86 166.253C157.266 166.513 156.694 166.868 156.118 167.334C155.546 167.801 155.01 168.38 154.524 169.053C154.042 169.726 153.659 170.479 153.384 171.296L145.415 195.129C145.131 195.977 145.005 196.762 145.045 197.462C145.086 198.189 145.234 198.835 145.496 199.378C145.743 199.898 146.072 200.302 146.473 200.58C146.842 200.836 147.22 200.957 147.63 200.957H157.901C158.589 200.953 159.269 200.841 159.922 200.612C160.53 200.405 161.097 200.082 161.656 199.629C162.223 199.167 162.759 198.57 163.25 197.848C163.754 197.099 164.195 196.17 164.56 195.075L167.807 185.366H160.048Z" fill="#FDCF0D"></path><path d="M190.167 165.885L184.489 182.867L180.779 182.871L186.457 165.885L178.653 165.889L166.928 200.948L174.732 200.944L180.383 184.051H184.093L178.442 200.944L186.295 200.939L198.02 165.88L190.167 165.885Z" fill="#FDCF0D"></path><path d="M220.119 168.729C220.078 168.07 219.907 167.518 219.614 167.096C219.317 166.67 218.939 166.37 218.466 166.181C217.962 165.979 217.395 165.876 216.787 165.876H206.755C206.287 165.876 205.773 166.002 205.188 166.244C204.566 166.504 203.959 166.872 203.382 167.33C202.783 167.81 202.216 168.397 201.703 169.075C201.203 169.734 200.816 170.475 200.546 171.278L192.576 195.111C192.292 195.954 192.18 196.731 192.229 197.426C192.283 198.153 192.454 198.79 192.733 199.328C193.017 199.867 193.368 200.266 193.81 200.549C194.215 200.814 194.616 200.939 195.03 200.939H205.062C205.751 200.939 206.431 200.823 207.083 200.594C207.691 200.387 208.254 200.064 208.817 199.611C209.384 199.149 209.92 198.552 210.406 197.83C210.911 197.081 211.352 196.147 211.717 195.057L219.673 171.273C220.011 170.268 220.155 169.416 220.114 168.734L220.119 168.729ZM204.684 192.908H201.023L207.381 173.898H211.041L204.684 192.908Z" fill="#FDCF0D"></path><path d="M243.582 168.716C243.542 168.057 243.371 167.505 243.078 167.083C242.781 166.657 242.403 166.356 241.93 166.168C241.426 165.966 240.858 165.863 240.25 165.863H230.218C229.75 165.863 229.237 165.988 228.651 166.23C228.03 166.491 227.422 166.859 226.846 167.316C226.247 167.796 225.68 168.384 225.166 169.062C224.667 169.721 224.279 170.461 224.009 171.264L216.039 195.098C215.76 195.937 215.643 196.717 215.693 197.413C215.747 198.14 215.918 198.777 216.197 199.315C216.481 199.853 216.832 200.253 217.273 200.535C217.678 200.8 218.079 200.926 218.493 200.926H228.525C229.214 200.926 229.894 200.809 230.547 200.58C231.155 200.374 231.718 200.051 232.281 199.598C232.848 199.136 233.384 198.539 233.87 197.816C234.374 197.067 234.816 196.138 235.18 195.044L243.137 171.26C243.474 170.255 243.623 169.403 243.578 168.721L243.582 168.716ZM228.147 192.899H224.486L230.844 173.889H234.505L228.147 192.899Z" fill="#FDCF0D"></path><path d="M251.611 192.89H247.95L256.991 165.858H249.283L237.558 200.921L256.685 200.912L262.539 183.41L254.781 183.414L251.611 192.89Z" fill="#FDCF0D"></path></svg>